<?xml version="1.0" standalone="no"?>
<!DOCTYPE svg PUBLIC "-//W3C//DTD SVG 20010904//EN"
 "http://www.w3.org/TR/2001/REC-SVG-20010904/DTD/svg10.dtd">
<svg version="1.0" xmlns="http://www.w3.org/2000/svg"
 width="851.000000pt" height="1355.000000pt" viewBox="0 0 851.000000 1355.000000"
 preserveAspectRatio="xMidYMid meet">

<g transform="translate(0.000000,1355.000000) scale(0.100000,-0.100000)"
fill="#000000" stroke="none">
<path d="M310 7090 l0 -6150 3945 0 3945 0 0 6150 0 6150 -3945 0 -3945 0 0
-6150z m4210 5230 c251 -23 514 -79 745 -161 120 -42 373 -152 421 -184 l25
-16 -30 -52 c-16 -29 -100 -182 -186 -342 -86 -159 -160 -293 -164 -297 -3 -3
-51 15 -106 42 -270 129 -559 204 -842 217 l-133 6 0 399 0 398 78 0 c42 0
129 -5 192 -10z m1403 -486 c304 -197 591 -476 822 -799 76 -107 101 -153 89
-164 -10 -11 -664 -411 -670 -411 -2 0 -10 14 -19 30 -36 70 -207 282 -310
385 -103 103 -315 274 -385 310 -16 9 -30 18 -30 20 0 4 360 595 398 653 8 12
19 22 24 22 5 0 42 -21 81 -46z m-1407 -459 c539 -71 1008 -327 1350 -738 87
-103 177 -234 172 -249 -4 -10 -892 -558 -905 -558 -5 0 -20 19 -35 43 -41 65
-135 164 -217 229 -90 72 -267 159 -381 188 -174 44 -395 35 -563 -21 -478
-160 -778 -653 -692 -1140 70 -402 362 -719 760 -826 88 -23 119 -26 250 -26
129 0 164 4 247 26 242 64 444 202 585 401 l60 85 458 -265 c252 -145 461
-266 463 -269 8 -7 -64 -122 -141 -224 -92 -124 -286 -317 -407 -407 -319
-237 -672 -375 -1059 -414 -636 -64 -1278 173 -1720 636 -298 312 -480 677
-558 1119 -24 141 -24 519 0 660 78 442 257 803 552 1114 336 353 761 569
1253 636 135 18 387 18 528 0z m2448 -704 c55 -108 125 -278 167 -401 21 -63
37 -115 36 -117 -10 -9 -754 -223 -764 -219 -7 3 -13 12 -13 21 0 23 -73 210
-121 310 -23 50 -43 94 -43 99 -1 11 686 385 697 379 4 -2 23 -35 41 -72z
m-5254 -758 c201 -48 366 -87 367 -88 2 -1 -6 -46 -17 -101 -11 -54 -25 -161
-32 -238 l-12 -138 -211 6 c-115 3 -295 9 -399 12 l-188 7 6 96 c10 138 35
331 57 440 10 51 19 95 19 98 0 3 10 3 23 -1 12 -3 186 -45 387 -93z m5513 20
c32 -151 66 -425 67 -534 l0 -26 -187 -7 c-104 -3 -283 -9 -398 -12 l-211 -6
-12 138 c-7 77 -21 184 -32 238 -11 55 -19 100 -17 101 5 3 753 183 763 184 6
0 18 -34 27 -76z m-5199 -793 c31 -445 203 -884 486 -1240 85 -107 289 -306
396 -386 292 -219 635 -365 1007 -429 l37 -6 0 -401 0 -401 -72 7 c-99 10
-341 59 -468 95 -369 107 -756 308 -1060 551 -135 108 -352 326 -460 460 -387
484 -610 1051 -661 1674 -6 81 -9 149 -6 152 6 6 407 20 653 22 l141 2 7 -100z
m5145 84 l123 -7 -6 -96 c-16 -221 -69 -545 -90 -538 -6 2 -177 44 -381 92
-203 48 -373 91 -378 95 -4 3 2 50 13 103 11 54 25 159 32 234 l12 136 276 -7
c151 -3 331 -9 399 -12z m-5749 -5184 l0 -710 -165 0 -165 0 0 710 0 710 165
0 165 0 0 -710z m1230 674 c75 -36 142 -98 176 -165 21 -42 374 -1182 374
-1208 0 -7 -58 -11 -175 -11 l-174 0 -30 98 c-16 53 -89 290 -160 526 -72 236
-136 435 -142 442 -9 11 -68 14 -290 14 l-279 0 0 -540 0 -540 -170 0 -170 0
0 710 0 711 488 -3 487 -3 65 -31z m1800 24 c0 -7 -22 -83 -48 -168 l-48 -155
-242 -3 -242 -2 0 -540 0 -540 -170 0 -170 0 0 540 0 540 -243 0 -244 0 -36
123 c-20 67 -43 143 -51 170 l-15 47 754 0 c598 0 755 -3 755 -12z m1437 0
c-2 -7 -26 -84 -52 -170 l-48 -158 -445 0 c-400 0 -447 -2 -464 -17 -15 -13
-18 -31 -18 -100 l0 -83 435 0 435 0 0 -170 0 -170 -435 0 -435 0 0 -78 c0
-54 5 -84 16 -100 l15 -22 450 0 c247 0 449 -2 449 -3 0 -3 66 -223 96 -320 5
-17 -21 -18 -553 -15 l-558 3 -67 33 c-76 37 -120 82 -157 162 l-26 55 0 455
c0 453 0 455 23 504 45 98 106 157 195 187 47 17 100 18 601 19 434 0 547 -3
543 -12z m1355 -21 c67 -33 121 -90 157 -166 l26 -56 0 -310 0 -310 -26 -55
c-14 -31 -41 -72 -58 -93 l-32 -36 50 -167 c28 -92 51 -174 51 -181 0 -10 -37
-13 -174 -13 -158 0 -175 2 -180 18 -36 128 -71 231 -82 250 -14 22 -15 22
-299 22 l-285 0 0 -145 0 -145 -170 0 -170 0 0 710 0 711 568 -3 567 -3 57
-28z m-4612 -1719 c0 -7 -21 -84 -47 -170 l-47 -158 -538 0 c-525 0 -538 0
-558 -20 -19 -19 -20 -33 -20 -355 0 -322 1 -336 20 -355 19 -19 33 -20 530
-20 281 0 510 2 510 5 0 23 258 841 277 878 50 100 153 174 273 197 31 6 258
10 551 10 l499 0 0 -710 0 -710 -170 0 -170 0 0 140 0 140 -462 -2 -462 -3
-41 -135 -41 -135 -698 -3 -699 -2 -56 25 c-74 34 -127 86 -162 160 l-29 60 0
456 c0 516 0 513 76 598 55 61 94 86 165 105 74 20 1299 23 1299 4z m2952 -26
c73 -36 123 -86 160 -161 23 -45 23 -52 23 -371 l0 -325 -27 -52 c-16 -29 -41
-67 -57 -86 l-29 -33 47 -154 c26 -85 51 -165 55 -177 l7 -23 -179 0 -178 0
-38 128 c-21 70 -43 133 -49 140 -7 9 -91 12 -358 12 l-349 0 0 -140 0 -140
-170 0 -170 0 0 710 0 711 623 -3 622 -3 67 -33z m1828 30 c0 -4 -9 -35 -19
-68 -11 -32 -34 -105 -51 -161 l-31 -103 -489 0 c-477 0 -491 -1 -510 -20 -25
-25 -28 -111 -4 -134 21 -22 13 -21 444 -61 212 -20 408 -43 435 -51 96 -27
189 -120 215 -214 5 -19 10 -107 10 -195 0 -155 -1 -162 -28 -220 -31 -65 -86
-121 -154 -157 l-43 -23 -611 -3 -611 -3 -46 155 c-26 85 -47 159 -47 165 0 8
176 11 583 11 470 0 587 3 601 13 12 9 20 31 23 64 5 42 2 54 -16 72 -11 11
-29 21 -39 21 -10 0 -199 18 -420 39 -354 35 -409 43 -455 64 -76 35 -122 79
-159 155 l-33 67 0 170 c0 162 1 173 26 225 45 96 137 171 232 190 54 10 1197
13 1197 2z"/>
<path d="M6390 4185 l0 -225 333 0 c311 0 335 1 350 18 15 16 17 46 17 209 0
171 -2 192 -18 206 -17 15 -56 17 -350 17 l-332 0 0 -225z"/>
<path d="M3067 2652 c-9 -10 -44 -108 -77 -218 -33 -109 -62 -205 -65 -211 -3
-10 82 -13 405 -13 l410 0 0 230 0 230 -328 0 c-304 0 -330 -1 -345 -18z"/>
<path d="M4610 2440 l0 -230 388 0 c335 0 391 2 410 16 21 15 22 20 22 213 0
179 -2 199 -18 214 -17 15 -60 17 -410 17 l-392 0 0 -230z"/>
<path d="M310 475 l0 -165 3945 0 3945 0 0 165 0 165 -3945 0 -3945 0 0 -165z"/>
</g>
</svg>
